<?xml version="1.0" standalone="no"?>
<!DOCTYPE svg PUBLIC "-//W3C//DTD SVG 20010904//EN"
 "http://www.w3.org/TR/2001/REC-SVG-20010904/DTD/svg10.dtd">
<svg version="1.0" xmlns="http://www.w3.org/2000/svg"
 width="500.000000pt" height="500.000000pt" viewBox="0 0 500.000000 500.000000"
 preserveAspectRatio="xMidYMid meet">
<metadata>
Created by potrace 1.11, written by Peter Selinger 2001-2013
</metadata>
<g transform="translate(0.000000,500.000000) scale(0.100000,-0.100000)"
fill="#000000" stroke="none">
<path d="M3870 4814 c-147 -23 -202 -39 -310 -93 -246 -123 -409 -335 -475
-616 -15 -65 -17 -261 -4 -330 41 -219 156 -408 330 -548 98 -79 270 -156 385
-172 27 -4 58 -9 69 -12 28 -5 164 -4 200 2 17 3 45 7 62 10 18 3 34 6 35 5 9
-2 152 52 198 75 119 60 247 170 326 281 49 68 109 196 129 274 9 36 19 74 22
85 3 11 7 73 8 137 6 248 -80 462 -255 638 -131 132 -274 210 -455 250 -52 12
-221 20 -265 14z m216 -74 c292 -45 539 -247 643 -525 23 -60 25 -69 37 -135
4 -19 8 -44 11 -55 5 -26 4 -161 -2 -200 -26 -184 -101 -340 -225 -465 -72
-73 -158 -140 -178 -140 -6 0 -12 -4 -14 -8 -1 -4 -31 -20 -65 -35 -209 -93
-461 -93 -671 0 -289 128 -483 424 -485 743 -2 264 117 506 328 666 89 68 247
138 339 151 23 3 42 6 44 8 9 8 179 4 238 -5z"/>
<path d="M3903 4405 c-67 -29 -92 -118 -53 -183 21 -34 72 -62 112 -62 34 0
86 31 107 64 23 34 21 101 -3 138 -20 30 -73 58 -108 58 -12 -1 -38 -7 -55
-15z m117 -113 c0 -34 -27 -62 -59 -62 -31 0 -44 8 -58 34 -31 56 47 115 95
73 12 -11 22 -32 22 -45z"/>
<path d="M3509 4041 c-35 -19 -69 -72 -69 -109 0 -69 62 -132 130 -132 67 0
130 63 130 131 0 33 -29 86 -57 104 -36 24 -96 26 -134 6z m99 -67 c13 -9 22
-25 22 -42 0 -36 -10 -49 -44 -62 -58 -22 -102 54 -59 102 20 22 51 23 81 2z"/>
<path d="M4239 4042 c-61 -31 -85 -86 -66 -152 37 -135 244 -109 249 32 3 97
-97 163 -183 120z m100 -73 c25 -27 20 -67 -10 -90 -28 -21 -56 -16 -81 13
-23 27 -23 53 2 78 26 26 64 26 89 -1z"/>
<path d="M3903 3680 c-82 -36 -97 -145 -29 -207 97 -89 247 7 206 132 -24 74
-104 108 -177 75z m97 -70 c23 -23 26 -58 6 -85 -16 -23 -71 -24 -93 -3 -23
24 -19 69 7 90 29 23 55 23 80 -2z"/>
<path d="M1150 4710 c-67 -23 -101 -48 -122 -91 -23 -48 -28 -90 -13 -126 29
-68 92 -58 67 10 -30 85 35 150 149 150 96 0 155 -50 166 -142 6 -53 -4 -78
-70 -176 -123 -182 -294 -363 -697 -735 -19 -18 -100 -94 -180 -170 -80 -76
-168 -159 -196 -186 -59 -56 -74 -80 -74 -122 0 -33 32 -66 71 -76 48 -11
1732 -8 1761 3 16 6 36 24 47 41 28 46 12 100 -44 155 -5 6 -39 44 -75 85 -36
41 -74 84 -85 96 -11 11 -31 34 -45 50 -61 71 -398 450 -422 476 -32 33 -53
36 -68 8 -9 -17 1 -32 72 -112 45 -51 85 -95 88 -98 3 -3 34 -39 70 -80 36
-41 68 -77 71 -80 3 -3 57 -63 119 -135 63 -71 129 -146 147 -165 123 -136
140 -165 98 -180 -15 -5 -1582 -6 -1711 -1 -12 1 -24 7 -27 15 -6 16 5 28 168
181 70 66 146 138 170 160 23 22 107 101 186 175 338 318 511 505 617 665 62
95 85 157 77 213 -15 109 -91 187 -194 199 -20 2 -43 5 -52 7 -10 2 -40 -4
-69 -14z"/>
<path d="M595 1931 c-3 -11 6 -40 23 -72 16 -30 58 -110 94 -179 206 -395 260
-502 255 -506 -3 -3 -14 -1 -24 4 -10 5 -160 60 -333 122 -173 61 -339 120
-367 130 -29 11 -59 17 -67 14 -21 -8 -29 -36 -14 -49 7 -7 168 -67 358 -134
190 -68 371 -132 403 -143 37 -14 62 -29 68 -42 5 -12 18 -32 29 -46 11 -14
22 -43 26 -65 3 -22 12 -67 20 -100 19 -82 18 -94 -10 -101 -34 -8 -92 -71
-117 -128 -42 -95 -11 -223 68 -284 62 -47 69 -57 82 -115 14 -63 39 -88 62
-61 10 12 10 27 3 65 l-11 49 41 0 c50 0 131 37 168 76 68 72 88 187 48 276
-36 83 -137 151 -225 151 -14 0 -25 2 -26 6 0 3 -2 13 -4 21 -30 124 -46 223
-38 231 6 6 37 5 84 -2 41 -6 85 -13 99 -14 44 -6 105 -17 111 -21 4 -2 9 -21
12 -42 17 -128 132 -223 261 -216 65 3 114 24 161 69 124 121 93 327 -61 405
-65 32 -161 34 -220 2 -53 -27 -103 -77 -121 -119 -12 -30 -16 -33 -46 -27
-17 3 -43 7 -57 9 -108 15 -218 39 -231 51 -8 8 -20 14 -26 14 -14 0 -37 41
-148 255 -48 94 -107 206 -130 250 -23 44 -64 123 -91 175 -26 52 -53 98 -59
102 -19 14 -44 8 -50 -11z m1137 -755 c49 -21 85 -61 103 -116 50 -151 -104
-288 -250 -221 -53 24 -83 59 -99 112 -45 149 103 284 246 225z m-651 -62 c18
-22 -1 -50 -32 -46 -30 3 -33 7 -25 37 7 29 36 34 57 9z m174 -410 c38 -18 77
-64 92 -109 38 -116 -54 -239 -179 -238 -159 2 -241 196 -130 310 59 61 139
75 217 37z"/>
<path d="M3081 1658 l-30 -8 0 -728 c0 -401 4 -734 9 -742 7 -11 155 -14 891
-14 637 -1 886 2 897 10 14 10 16 57 16 340 1 259 -2 330 -12 341 -7 7 -16 13
-20 13 -3 0 -118 -56 -254 -125 -136 -69 -249 -125 -251 -125 -2 0 -4 52 -5
115 -1 64 -4 120 -7 125 -11 19 -43 10 -113 -30 -38 -22 -72 -40 -76 -40 -3 0
-23 -11 -44 -23 -20 -13 -77 -46 -127 -72 -49 -27 -99 -54 -110 -62 -11 -7
-23 -13 -27 -13 -5 0 -8 42 -8 94 0 52 -3 101 -6 110 -9 24 -34 20 -131 -25
-48 -23 -159 -75 -245 -115 l-158 -73 0 519 0 519 -22 7 c-32 10 -131 11 -167
2z m124 -585 c0 -449 2 -525 15 -537 13 -12 46 0 260 99 135 63 250 114 255
115 6 0 9 -36 8 -92 -2 -111 2 -128 29 -128 11 0 73 29 137 64 64 35 141 77
172 94 31 16 81 44 112 62 l57 32 1 -24 c1 -12 2 -64 3 -114 2 -145 -14 -145
279 4 139 70 254 128 258 130 6 3 9 -505 3 -530 -5 -15 -65 -17 -839 -17
l-835 0 -1 57 c0 67 0 1282 1 1298 0 6 19 10 42 10 l42 -1 1 -522z"/>
</g>
</svg>
