<?xml version="1.0" encoding="UTF-8"?>
<svg width="30px" height="30px" viewBox="0 0 30 30" version="1.1" xmlns="http://www.w3.org/2000/svg" xmlns:xlink="http://www.w3.org/1999/xlink">
    <!-- Generator: Sketch 50.2 (55047) - http://www.bohemiancoding.com/sketch -->
    <title>sqetch_icon</title>
    <desc>Created with Sketch.</desc>
    <defs></defs>
    <g id="Page-1" stroke="none" stroke-width="1" fill="none" fill-rule="evenodd">
        <g id="sqetch_icon" fill="#000000" fill-rule="nonzero">
            <path d="M14.8604651,0 C6.62790698,0 0,6.62790698 0,14.8604651 C0,23.0232558 6.62790698,29.6511628 14.8604651,29.6511628 C23.0232558,29.6511628 29.7209302,23.0232558 29.7209302,14.7906977 C29.6511628,6.62790698 23.0232558,0 14.8604651,0 Z M14.3023256,13.744186 C13.6744186,11.7209302 11.7906977,10.3255814 9.69767442,10.3255814 C7.04651163,10.3255814 4.81395349,12.4883721 4.81395349,15.2093023 C4.81395349,17.9302326 6.97674419,20.0930233 9.69767442,20.0930233 C10.6046512,20.0930233 11.5116279,19.8139535 12.2790698,19.3953488 L12.3488372,19.3255814 L12.3488372,27.1395349 L12.2790698,27.1395349 C6.41860465,25.9534884 2.23255814,20.7209302 2.23255814,14.8604651 C2.23255814,7.88372093 7.88372093,2.23255814 14.8604651,2.23255814 C14.9302326,2.23255814 15.2093023,2.23255814 15.2093023,2.23255814 L15.2093023,12.8372093 L14.3023256,13.744186 Z M12.2790698,15.2093023 C12.2790698,16.6744186 11.0930233,17.7906977 9.69767442,17.7906977 C8.23255814,17.7906977 7.11627907,16.6046512 7.11627907,15.2093023 C7.11627907,13.8139535 8.30232558,12.627907 9.69767442,12.627907 C11.0930233,12.627907 12.2790698,13.8139535 12.2790698,15.2093023 Z M14.8604651,27.4186047 C14.7906977,27.4186047 14.5116279,27.4186047 14.5116279,27.4186047 L14.5116279,17.0232558 L15.3488372,16.0465116 L15.3488372,16.1162791 C15.9767442,18.1395349 17.8604651,19.4651163 19.9534884,19.4651163 C22.6046512,19.4651163 24.8372093,17.3023256 24.8372093,14.5813953 C24.8372093,11.9302326 22.6744186,9.69767442 19.9534884,9.69767442 C19.0465116,9.69767442 18.1395349,9.97674419 17.372093,10.3953488 L17.372093,10.4651163 L17.372093,2.51162791 L17.4418605,2.51162791 C23.2325581,3.76744186 27.4186047,8.93023256 27.4186047,14.8604651 C27.4186047,21.7674419 21.7674419,27.4186047 14.8604651,27.4186047 Z M17.372093,14.5813953 C17.372093,13.1162791 18.5581395,12 19.9534884,12 C21.4186047,12 22.5348837,13.1860465 22.5348837,14.5813953 C22.5348837,15.9767442 21.3488372,17.1627907 19.9534884,17.1627907 C18.5581395,17.1627907 17.372093,16.0465116 17.372093,14.5813953 Z" id="Shape"></path>
        </g>
    </g>
</svg>