<svg width="123" height="113" viewBox="0 0 123 113" fill="none" xmlns="http://www.w3.org/2000/svg">
<path d="M61.4295 0C60.1731 0 59.1543 1.11051 59.1543 2.48048V17.2376C59.1543 18.6076 60.1731 19.7181 61.4295 19.7181C62.6858 19.7181 63.7046 18.6076 63.7046 17.2376V2.48048C63.7046 1.11051 62.6858 0 61.4295 0Z" fill="#333333"/>
<path d="M47.8283 20.1395L42.0451 14.3586C41.1002 13.4145 39.5702 13.4153 38.6265 14.3601C37.6831 15.3049 37.6839 16.8359 38.628 17.78L44.4115 23.5609C44.8835 24.0327 45.5018 24.2684 46.1199 24.2684C46.7389 24.2684 47.3577 24.0319 47.8298 23.5594C48.7732 22.6146 48.7725 21.0836 47.8283 20.1395Z" fill="#333333"/>
<path d="M83.4964 14.3834C82.5834 13.4062 81.1038 13.4072 80.1915 14.3846L74.2476 20.7553C73.3355 21.733 73.3362 23.3174 74.249 24.2943C74.7053 24.7828 75.3033 25.0268 75.9008 25.0268C76.4992 25.0268 77.0975 24.7821 77.5538 24.2931L83.4978 17.9224C84.4098 16.9447 84.4092 15.3604 83.4964 14.3834Z" fill="#333333"/>
<path d="M106.48 63.4821H104.556C106.126 61.4383 107.063 58.8845 107.063 56.1156V52.7557C107.063 46.0682 101.613 40.6277 94.9141 40.6277C88.2153 40.6277 82.7653 46.0682 82.7653 52.7555V55.3673L64.8244 37.4571C63.8288 36.4634 62.3645 36.1444 61.0505 36.6182C59.737 36.1444 58.2723 36.4634 57.2764 37.4574L39.3357 55.3673V52.7555C39.3352 46.0682 33.8853 40.6277 27.1865 40.6277C20.4876 40.6277 15.0377 46.0682 15.0377 52.7555V56.1153C15.0377 58.8845 15.9742 61.438 17.5448 63.4818H15.6203C7.00719 63.4821 0 70.4772 0 79.0754V110.619C0 111.934 1.0679 113 2.38478 113H12.4605C12.6989 113 12.9288 112.964 13.1461 112.899C13.3633 112.964 13.5932 113 13.8317 113H40.5412C41.8581 113 42.926 111.934 42.926 110.619V102.525C42.926 101.21 41.8581 100.144 40.5412 100.144C39.2243 100.144 38.1564 101.21 38.1564 102.525V108.239H16.2165V81.1116C16.2165 79.7967 15.1486 78.7309 13.8317 78.7309C12.5148 78.7309 11.4469 79.7967 11.4469 81.1116V108.239H4.76955V79.0754C4.76955 73.1026 9.63712 68.2434 15.6203 68.2434H32.1945C32.8508 68.2434 33.4451 67.9784 33.8762 67.5504C33.8779 67.5487 33.8793 67.5477 33.881 67.5463L58.6514 42.8184C58.489 47.7625 56.9485 52.5246 54.1712 56.6424L38.5633 79.782C38.2983 80.175 38.1567 80.6381 38.1567 81.1116V83.7177C38.1567 85.0325 39.2246 86.0983 40.5414 86.0983C41.8583 86.0983 42.9262 85.0325 42.9262 83.7177V81.8382L58.1275 59.3014C59.2889 57.5794 60.2628 55.7601 61.0505 53.8716C61.8382 55.7601 62.8119 57.5794 63.9735 59.3014L79.1746 81.8382V110.619C79.1746 111.934 80.2425 113 81.5594 113H108.269C108.507 113 108.737 112.964 108.954 112.899C109.172 112.964 109.402 113 109.64 113H119.716C121.033 113 122.101 111.934 122.101 110.619V79.0754C122.101 70.4772 115.093 63.4821 106.48 63.4821ZM34.5657 56.1153C34.5657 60.1775 31.2556 63.4821 27.1865 63.4821C23.1173 63.4821 19.8072 60.1775 19.8072 56.1156V52.7557C19.8072 48.6936 23.1175 45.389 27.1865 45.389C31.2554 45.389 34.5657 48.6936 34.5657 52.7555V56.1153ZM87.5349 52.7555C87.5349 48.6936 90.8452 45.389 94.9141 45.389C98.983 45.389 102.293 48.6936 102.293 52.7555V56.1153C102.293 60.1775 98.9833 63.4821 94.9141 63.4821C90.845 63.4821 87.5349 60.1775 87.5349 56.1156V52.7555ZM117.331 108.239H110.654V90.6216C110.654 89.3068 109.586 88.2409 108.269 88.2409C106.952 88.2409 105.884 89.3068 105.884 90.6216V108.239H83.9441V81.1116C83.9441 80.6378 83.8025 80.1748 83.5375 79.782L67.9296 56.6426C65.1523 52.5248 63.6118 47.7628 63.4494 42.8186L88.2198 67.5463C88.2513 67.5777 88.2809 67.6042 88.3095 67.6277C88.7323 68.0094 89.2913 68.2439 89.9061 68.2439H106.48C112.463 68.2439 117.331 73.103 117.331 79.0759V108.239Z" fill="#333333"/>
<path d="M41.8029 91.7844C41.38 91.2907 40.793 91.0067 40.1946 91.0067C39.5962 91.0067 39.0092 91.2907 38.5861 91.7844C38.1629 92.2781 37.9194 92.9629 37.9194 93.661C37.9194 94.3591 38.1626 95.0439 38.5861 95.5376C39.0095 96.0314 39.5962 96.3154 40.1946 96.3154C40.793 96.3154 41.38 96.0314 41.8029 95.5376C42.2261 95.0439 42.4698 94.3591 42.4698 93.661C42.4698 92.9629 42.2263 92.2781 41.8029 91.7844Z" fill="#333333"/>
</svg>
