<svg width="74" height="74" viewBox="0 0 74 74" fill="none" xmlns="http://www.w3.org/2000/svg">
<path d="M49.4182 8.46646C38.1288 -2.82215 19.7545 -2.82215 8.46518 8.46646C-2.82173 19.7575 -2.82173 38.1281 8.46518 49.4192C18.5187 59.4696 34.1764 60.5463 45.4585 52.6983C45.6958 53.8216 46.2391 54.8934 47.1128 55.767L63.5537 72.2069C65.9496 74.5977 69.8213 74.5977 72.2049 72.2069C74.5984 69.8136 74.5984 65.9422 72.2049 63.5563L55.764 47.1115C54.8952 46.2453 53.8209 45.6995 52.6975 45.4622C60.5509 34.1785 59.4741 18.5242 49.4182 8.46646ZM44.2275 44.2288C35.799 52.6567 22.0819 52.6567 13.6559 44.2288C5.23231 35.8009 5.23231 22.0872 13.6559 13.6593C22.0819 5.2338 35.799 5.2338 44.2275 13.6593C52.6559 22.0872 52.6559 35.8009 44.2275 44.2288Z" fill="#333333"/>
</svg>
