<svg width="89" height="89" viewBox="0 0 89 89" fill="none" xmlns="http://www.w3.org/2000/svg">
<rect width="89" height="89" fill="white"/>
<path d="M75.209 6.36554H61.2082L62.1528 10.7363C62.269 11.2789 62.2633 11.8237 62.2025 12.3596H72.2115V83.0061H16.7833V12.3596H26.7953C26.7344 11.8207 26.7315 11.2759 26.8475 10.7304L27.7923 6.36554H13.7891C12.1343 6.36554 10.7949 7.70762 10.7949 9.36232V86.003C10.7949 87.6552 12.1343 88.9998 13.7891 88.9998H75.209C76.8639 88.9998 78.2058 87.6546 78.2058 86.003V9.3625C78.206 7.70762 76.8639 6.36554 75.209 6.36554Z" fill="#333333"/>
<path d="M65.1567 28.0271H44.6864C43.0286 28.0271 41.6895 29.3692 41.6895 31.0213C41.6895 32.6769 43.0288 34.0183 44.6864 34.0183H65.1567C66.8145 34.0183 68.1534 32.6769 68.1534 31.0213C68.1538 29.3692 66.8145 28.0271 65.1567 28.0271Z" fill="#333333"/>
<path d="M65.1567 46.4073H44.6864C43.0286 46.4073 41.6895 47.7493 41.6895 49.4041C41.6895 51.0572 43.0288 52.4015 44.6864 52.4015H65.1567C66.8145 52.4015 68.1534 51.0565 68.1534 49.4041C68.1538 47.7493 66.8145 46.4073 65.1567 46.4073Z" fill="#333333"/>
<path d="M21.9088 28.7313C20.6447 29.7977 20.482 31.6883 21.5487 32.9545L25.92 38.1348C26.4912 38.8126 27.3288 39.1986 28.2098 39.1986C28.2827 39.1986 28.3549 39.1956 28.4303 39.1899C29.3866 39.1205 30.2534 38.5929 30.758 37.7755L38.6218 25.0442C39.4914 23.6354 39.057 21.7916 37.6484 20.9227C36.2396 20.0473 34.3958 20.4875 33.5259 21.8962L27.8332 31.1085L26.1289 29.0906C25.0619 27.8244 23.1752 27.6618 21.9088 28.7313Z" fill="#333333"/>
<path d="M29.0848 44.9121C26.6011 44.9121 24.5889 46.9238 24.5889 49.4047C24.5889 51.8864 26.6009 53.8979 29.0848 53.8979C31.5665 53.8979 33.5779 51.8864 33.5779 49.4047C33.5779 46.9234 31.5665 44.9121 29.0848 44.9121Z" fill="#333333"/>
<path d="M65.1567 64.3846H44.6864C43.0286 64.3846 41.6895 65.7239 41.6895 67.3821C41.6895 69.0344 43.0288 70.3763 44.6864 70.3763H65.1567C66.8145 70.3763 68.1534 69.0344 68.1534 67.3821C68.1538 65.7237 66.8145 64.3846 65.1567 64.3846Z" fill="#333333"/>
<path d="M29.0848 62.8893C26.6011 62.8893 24.5889 64.9008 24.5889 67.3825C24.5889 69.8634 26.6009 71.8758 29.0848 71.8758C31.5665 71.8758 33.5779 69.864 33.5779 67.3825C33.5779 64.9008 31.5665 62.8893 29.0848 62.8893Z" fill="#333333"/>
<path d="M31.7862 13.8557H57.2078C57.831 13.8557 58.4196 13.5769 58.8104 13.0904C59.202 12.6087 59.353 11.9717 59.2189 11.3624L57.1149 1.62336C56.9093 0.675622 56.0718 0 55.1032 0H33.8936C32.9258 0 32.0882 0.675806 31.8821 1.62336L29.7748 11.3624C29.6474 11.9715 29.7977 12.6087 30.1865 13.0904C30.5777 13.5771 31.1663 13.8557 31.7862 13.8557Z" fill="#333333"/>
</svg>
