<?xml version="1.0" encoding="utf-8"?>
<!-- Generator: Adobe Illustrator 19.0.0, SVG Export Plug-In . SVG Version: 6.00 Build 0)  -->
<svg version="1.1" id="Layer_1" xmlns="http://www.w3.org/2000/svg" xmlns:xlink="http://www.w3.org/1999/xlink" x="0px" y="0px"
	 viewBox="0 0 330.1 156.6" style="enable-background:new 0 0 330.1 156.6;" xml:space="preserve">
<path d="M61.6,27.5h-16v40.7h-2.1V27.5h-16v-1.9h34V27.5z"/>
<path d="M103.1,46.5c0-2.6,0.4-5.1,1.3-7.6c0.9-2.5,2.2-4.8,3.9-6.8c1.7-2,3.8-3.7,6.3-4.9c2.5-1.3,5.3-1.9,8.6-1.9
	c3.8,0,7,0.9,9.7,2.6c2.7,1.7,4.6,4,5.9,6.7l-1.8,0.8c-0.8-1.5-1.7-2.8-2.8-3.8c-1.1-1-2.2-1.9-3.5-2.5c-1.2-0.6-2.5-1.1-3.8-1.4
	c-1.3-0.3-2.6-0.4-4-0.4c-2.8,0-5.4,0.6-7.6,1.7c-2.2,1.1-4.1,2.6-5.6,4.5c-1.5,1.8-2.7,3.9-3.5,6.2c-0.8,2.3-1.2,4.7-1.2,7
	c0,2.6,0.5,5.1,1.4,7.5c0.9,2.4,2.2,4.5,3.8,6.3c1.6,1.8,3.5,3.3,5.7,4.3c2.2,1.1,4.6,1.6,7.1,1.6c1.4,0,2.7-0.2,4.1-0.5
	c1.4-0.3,2.8-0.9,4.1-1.6c1.3-0.7,2.5-1.6,3.7-2.7c1.1-1.1,2.1-2.4,2.9-3.9l1.9,0.7c-0.7,1.6-1.7,3-2.9,4.3
	c-1.2,1.2-2.6,2.3-4.1,3.1c-1.5,0.8-3.1,1.5-4.8,1.9c-1.7,0.4-3.3,0.6-4.9,0.6c-2.9,0-5.6-0.6-8-1.9c-2.4-1.3-4.5-2.9-6.3-5
	c-1.8-2.1-3.1-4.4-4.1-7C103.6,51.9,103.1,49.3,103.1,46.5z"/>
<path d="M218.2,57.1c0,1.5-0.3,3-0.9,4.3c-0.6,1.3-1.4,2.5-2.4,3.5s-2.2,1.8-3.5,2.4c-1.3,0.6-2.8,0.9-4.2,0.9h-19.9V25.5h19.3
	c1.5,0,2.8,0.3,4,1c1.2,0.6,2.2,1.5,3.1,2.5c0.8,1,1.5,2.2,1.9,3.5c0.5,1.3,0.7,2.6,0.7,3.9c0,2.2-0.5,4.1-1.6,5.9
	c-1.1,1.8-2.6,3.1-4.5,4c1.2,0.4,2.3,0.9,3.3,1.6c1,0.7,1.8,1.5,2.5,2.5c0.7,1,1.2,2,1.6,3.1C218,54.7,218.2,55.9,218.2,57.1z
	 M189.4,27.5v18.2h16.5c1.2,0,2.4-0.3,3.4-0.8c1-0.5,1.9-1.2,2.6-2.1c0.7-0.9,1.3-1.8,1.7-2.9c0.4-1.1,0.6-2.2,0.6-3.4
	c0-1.2-0.2-2.3-0.6-3.4c-0.4-1.1-1-2.1-1.7-2.9c-0.7-0.8-1.5-1.5-2.5-2c-1-0.5-2.1-0.8-3.3-0.8H189.4z M216.1,56.9
	c0-1.2-0.2-2.4-0.7-3.5c-0.4-1.1-1-2.1-1.8-3c-0.8-0.9-1.7-1.5-2.7-2.1c-1-0.5-2.2-0.8-3.4-0.8h-18.2v18.7h17.8
	c1.2,0,2.4-0.3,3.5-0.8c1.1-0.5,2-1.2,2.9-2.1c0.8-0.9,1.5-1.9,1.9-3C215.9,59.2,216.1,58.1,216.1,56.9z"/>
<path d="M266.4,68.1V25.5h2.1v40.7h26.1v1.9H266.4z"/>
<g>
	<g>
		<path d="M121.4,135.7c-13.2,0-23.9-10.7-23.9-23.9c0-13.2,10.7-23.9,23.9-23.9c13.2,0,23.9,10.7,23.9,23.9
			C145.3,125,134.6,135.7,121.4,135.7z M121.4,89.9c-12.1,0-21.9,9.8-21.9,21.9s9.8,21.9,21.9,21.9s21.9-9.8,21.9-21.9
			S133.5,89.9,121.4,89.9z"/>
	</g>
	<g>
		<g>
			<g>
				<path d="M111.1,115.4c-2,0-3.6-1.6-3.6-3.6c0-2,1.6-3.6,3.6-3.6c2,0,3.6,1.6,3.6,3.6C114.6,113.8,113,115.4,111.1,115.4z
					 M111.1,110.2c-0.9,0-1.6,0.7-1.6,1.6s0.7,1.6,1.6,1.6c0.9,0,1.6-0.7,1.6-1.6S111.9,110.2,111.1,110.2z"/>
			</g>
			<g>
				<path d="M130.4,115.4c-2,0-3.6-1.6-3.6-3.6c0-2,1.6-3.6,3.6-3.6c2,0,3.6,1.6,3.6,3.6C134,113.8,132.4,115.4,130.4,115.4z
					 M130.4,110.2c-0.9,0-1.6,0.7-1.6,1.6s0.7,1.6,1.6,1.6c0.9,0,1.6-0.7,1.6-1.6S131.3,110.2,130.4,110.2z"/>
			</g>
		</g>
		<g>
			<g>
				<path d="M121.4,125.1c-2,0-3.6-1.6-3.6-3.6c0-2,1.6-3.6,3.6-3.6c2,0,3.6,1.6,3.6,3.6C125,123.5,123.4,125.1,121.4,125.1z
					 M121.4,119.9c-0.9,0-1.6,0.7-1.6,1.6c0,0.9,0.7,1.6,1.6,1.6c0.9,0,1.6-0.7,1.6-1.6C123,120.6,122.3,119.9,121.4,119.9z"/>
			</g>
			<g>
				<path d="M121.4,105.7c-2,0-3.6-1.6-3.6-3.6c0-2,1.6-3.6,3.6-3.6c2,0,3.6,1.6,3.6,3.6C125,104.1,123.4,105.7,121.4,105.7z
					 M121.4,100.6c-0.9,0-1.6,0.7-1.6,1.6c0,0.9,0.7,1.6,1.6,1.6c0.9,0,1.6-0.7,1.6-1.6C123,101.3,122.3,100.6,121.4,100.6z"/>
			</g>
		</g>
	</g>
</g>
<path d="M218.5,107.9c-2.9,0-5.3,1.9-6.2,4.5l-7.3-1.2c-0.3-0.5-0.9-0.9-1.6-0.9c0,0,0,0,0,0l-10-19.3c-0.3-0.5-0.9-0.7-1.3-0.4
	c-0.5,0.3-0.7,0.9-0.4,1.3L201,110l-19.3-6.9c-0.5-0.2-1.1,0.1-1.3,0.6c-0.2,0.5,0.1,1.1,0.6,1.3l20.5,7.3c0.1,0.6,0.4,1.1,0.9,1.4
	l1.4,6.3c-2.4,0.9-4.2,3.3-4.2,6.1c0,2.6,1.6,4.9,3.9,5.9l0.7,2.9c0.1,0.5,0.5,0.8,1,0.8c0.1,0,0.2,0,0.2,0c0.5-0.1,0.9-0.7,0.7-1.2
	l-0.5-1.9c0.2,0,0.3,0,0.5,0c3.6,0,6.5-2.9,6.5-6.5c0-3.6-2.9-6.5-6.5-6.5c-0.1,0-0.3,0-0.4,0l-1.3-6c0.2-0.1,0.4-0.3,0.5-0.5l7,1.2
	c0,0,0,0.1,0,0.1c0,3.6,2.9,6.5,6.5,6.5s6.5-2.9,6.5-6.5C225.1,110.8,222.1,107.9,218.5,107.9z M204.3,112.1c0,0.5-0.4,0.9-0.9,0.9
	c-0.5,0-0.9-0.4-0.9-0.9c0-0.5,0.4-0.9,0.9-0.9C203.9,111.2,204.3,111.6,204.3,112.1z M206.2,121.6c2.5,0,4.5,2,4.5,4.5
	c0,2.5-2,4.5-4.5,4.5c-2.5,0-4.5-2-4.5-4.5C201.7,123.6,203.7,121.6,206.2,121.6z M218.5,118.9c-2.5,0-4.5-2-4.5-4.5
	c0-2.5,2-4.5,4.5-4.5c2.5,0,4.5,2,4.5,4.5C223.1,116.9,221,118.9,218.5,118.9z"/>
<g>
	<path d="M65.7,135.7C65.7,135.7,65.7,135.7,65.7,135.7l-42.4-0.1c-1.9,0-2.6-0.9-2.9-1.4c-0.2-0.5-0.4-1.6,0.8-3.1l20.4-19.3
		c3.7-3.8,9.6-10.8,9.7-13c0.1-1.2-0.3-2.3-1.1-3.2c-0.8-0.8-1.8-1.2-3.1-1.2c-3.2,0-3.8,1.9-3.8,1.9c-0.3,1.2,0.1,1.8,0.1,1.8
		c0.3,0.4,0.3,1-0.1,1.4c-0.4,0.4-1,0.4-1.4,0c-0.1-0.1-1.3-1.3-0.6-3.7c0.3-1.2,1.9-3.4,5.7-3.4c1.8,0,3.4,0.7,4.6,1.9
		c1.1,1.2,1.7,2.9,1.6,4.6c-0.2,3.6-8.6,12.5-10.3,14.3l-20.4,19.3c-0.4,0.5-0.5,0.8-0.4,0.9c0,0,0.3,0.2,1,0.2l42.4,0.1
		c0,0,0,0,0,0c0.7,0,1.1-0.2,1.1-0.4c0.1-0.2,0-0.6-0.3-1.1l-17-19.2c-0.4-0.4-0.3-1,0.1-1.4c0.4-0.4,1-0.3,1.4,0.1l17,19.2
		c0,0,0,0.1,0.1,0.1c1.1,1.5,0.8,2.7,0.5,3.2C68.4,134.8,67.6,135.7,65.7,135.7z"/>
</g>
<g>
	<path d="M303.8,135.7h-46.6c-0.6,0-1-0.4-1-1V96.5c0-0.6,0.4-1,1-1h4c0.6,0,1,0.4,1,1v27l13-6c0.3-0.1,0.7-0.1,1,0.1
		c0.3,0.2,0.5,0.5,0.5,0.8v5l12.2-6.7c0.3-0.2,0.7-0.2,1,0c0.3,0.2,0.5,0.5,0.5,0.9l0,5.8l13-6.6c0.3-0.2,0.7-0.1,1,0
		c0.3,0.2,0.5,0.5,0.5,0.8l0,17C304.8,135.3,304.4,135.7,303.8,135.7z M258.2,133.7h44.6l0-14.4l-13,6.6c-0.3,0.2-0.7,0.1-1,0
		c-0.3-0.2-0.5-0.5-0.5-0.9l0-5.8l-12.2,6.7c-0.3,0.2-0.7,0.2-1,0c-0.3-0.2-0.5-0.5-0.5-0.9V120l-13,6c-0.3,0.1-0.7,0.1-1-0.1
		c-0.3-0.2-0.5-0.5-0.5-0.8V97.5h-2V133.7z"/>
</g>
</svg>
